<svg width="402" height="317" viewBox="0 0 402 317" fill="none" xmlns="http://www.w3.org/2000/svg">
<rect width="402" height="316.023" rx="10" fill="#0A37C5"/>
<path d="M193.739 99.8835C188.181 99.8189 183.257 100.31 178.968 101.369C174.679 102.428 171.011 103.81 167.953 105.527C164.895 107.232 162.433 109.117 160.542 111.171C158.65 113.224 157.367 115.2 156.68 117.125C160.244 120.34 162.887 124.46 164.61 129.484C166.321 134.508 167.189 140.203 167.189 146.557V238.975H124.584V146.157C124.584 144.245 124.376 142.282 123.962 140.255C123.547 138.24 122.796 136.238 121.694 134.249C120.593 132.273 119.09 130.323 117.172 128.399C115.254 126.488 112.818 124.705 109.864 123.065C111.03 118.209 112.689 113.354 114.853 108.498C117.016 103.642 119.738 98.9924 123.029 94.5497C126.32 90.1071 130.22 85.9744 134.704 82.1387C139.2 78.316 144.344 74.9711 150.137 72.1428C155.929 69.3015 162.446 67.0673 169.69 65.4272C176.933 63.787 184.941 62.9604 193.713 62.9604C204.144 62.9604 213.383 63.9032 221.443 65.7758C229.503 67.6614 236.565 70.2572 242.642 73.5763C248.719 76.8954 253.838 80.8602 258.023 85.4707C262.208 90.0813 265.59 95.0922 268.156 100.503C270.734 105.902 272.6 111.61 273.767 117.628C274.933 123.646 275.516 129.768 275.516 135.993V238.975H232.081V133.126C232.081 129.161 231.447 125.209 230.177 121.283C228.907 117.357 226.782 113.818 223.801 110.667C220.821 107.529 216.869 104.972 211.971 103.022C207.06 101.072 200.97 100.026 193.701 99.8964L193.739 99.8835Z" fill="white"/>
<path opacity="0.6" d="M109.475 0.337402V315.998" stroke="#C1C1C1" stroke-width="0.5" stroke-miterlimit="10"/>
<path opacity="0.6" d="M124.467 0.337402V315.998" stroke="#C1C1C1" stroke-width="0.5" stroke-miterlimit="10"/>
<path opacity="0.6" d="M167.008 0.337402V315.998" stroke="#C1C1C1" stroke-width="0.5" stroke-miterlimit="10"/>
<path opacity="0.6" d="M231.667 0.337402V315.998" stroke="#C1C1C1" stroke-width="0.5" stroke-miterlimit="10"/>
<path opacity="0.6" d="M401.48 238.962H0" stroke="#C1C1C1" stroke-width="0.5" stroke-miterlimit="10"/>
<path opacity="0.6" d="M401.48 62.5088H0" stroke="#C1C1C1" stroke-width="0.5" stroke-miterlimit="10"/>
<path opacity="0.6" d="M401.48 100.129H0" stroke="#C1C1C1" stroke-width="0.5" stroke-miterlimit="10"/>
<path opacity="0.6" d="M401.48 117.009H0" stroke="#C1C1C1" stroke-width="0.5" stroke-miterlimit="10"/>
<path opacity="0.6" d="M401.48 122.911H0" stroke="#C1C1C1" stroke-width="0.5" stroke-miterlimit="10"/>
<path opacity="0.6" d="M276.099 0.337402V315.998" stroke="#C1C1C1" stroke-width="0.5" stroke-miterlimit="10"/>
</svg>
