<svg width="402" height="316" viewBox="0 0 402 316" fill="none" xmlns="http://www.w3.org/2000/svg">
<g clip-path="url(#clip0_46_679)">
<path d="M385.67 212.48L402 203.05V191.16L380.98 203.3L340.69 180.04V133.52L380.98 110.26L402 122.4V111.22L385.67 101.79V55.27L402 45.84V34.33L380.89 46.52L340.6 23.26V0H331.04V23.26L290.75 46.52L250.46 23.26V0H240.9V23.26L200.61 46.52L160.32 23.26V0H150.76V23.26L110.47 46.52L70.18 23.26V0H60.62V23.26L20.33 46.52L0 34.76V46.27L15.58 55.26V101.78L0 110.79V122.41L21.02 110.27L61.31 133.53V180.05L21.02 203.31L0 191.17V203.49L15.58 212.48V259L0 267.99V278.8L20.36 267.05L60.65 290.31V316H70.21V290.31L110.5 267.05L150.79 290.31V316H160.35V290.31L200.64 267.05L240.93 290.31V316H250.49V290.31L290.78 267.05L331.07 290.31V316H340.63V290.31L380.92 267.05L402.03 279.24V268.43L385.7 259V212.48H385.67ZM295.54 55.27L335.83 32.01L376.12 55.27V101.79L335.83 125.05L295.54 101.79V55.27ZM205.41 55.27L245.7 32.01L285.99 55.27V101.79L245.7 125.05L205.41 101.79V55.27ZM115.27 55.27L155.56 32.01L195.85 55.27V101.79L155.56 125.05L115.27 101.79V55.27ZM25.14 101.79V55.27L65.43 32.01L105.72 55.27V101.79L65.43 125.05L25.14 101.79ZM105.71 259L65.42 282.26L25.13 259V212.48L65.42 189.22L105.71 212.48V259ZM70.72 180.04V133.52L111.01 110.26L151.3 133.52V180.04L111.01 203.3L70.72 180.04ZM195.85 259L155.56 282.26L115.27 259V212.48L155.56 189.22L195.85 212.48V259ZM160.71 180.04V133.52L201 110.26L241.29 133.52V180.04L201 203.3L160.71 180.04ZM285.98 259L245.69 282.26L205.4 259V212.48L245.69 189.22L285.98 212.48V259ZM250.7 180.04V133.52L290.99 110.26L331.28 133.52V180.04L290.99 203.3L250.7 180.04ZM376.11 259L335.82 282.26L295.53 259V212.48L335.82 189.22L376.11 212.48V259Z" fill="#0A37C5"/>
<path d="M211.51 147.23C211.51 141.42 206.8 136.72 201 136.72C195.2 136.72 190.49 141.43 190.49 147.23C190.49 150.82 192.3 153.99 195.05 155.89L189.32 176.86H212.7L206.97 155.89C209.72 153.99 211.53 150.82 211.53 147.23H211.51Z" fill="#00113A"/>
<path d="M241.29 133.53L201 110.27L160.71 133.53V180.05L201 203.31L241.29 180.05V133.53ZM201 176.85H189.31L195.04 155.88C192.29 153.98 190.48 150.81 190.48 147.22C190.48 141.41 195.19 136.71 200.99 136.71C206.79 136.71 211.5 141.42 211.5 147.22C211.5 150.81 209.69 153.98 206.94 155.88L212.67 176.85H200.98H201Z" fill="white"/>
<path d="M241.29 133.53L201 110.27L160.71 133.53V180.05L201 203.31L241.29 180.05V133.53ZM201 176.85H189.31L195.04 155.88C192.29 153.98 190.48 150.81 190.48 147.22C190.48 141.41 195.19 136.71 200.99 136.71C206.79 136.71 211.5 141.42 211.5 147.22C211.5 150.81 209.69 153.98 206.94 155.88L212.67 176.85H200.98H201Z" fill="url(#paint0_linear_46_679)"/>
<path d="M285.98 101.79V55.2698L245.69 32.0098L205.41 55.2698V101.79L245.69 125.05L285.98 101.79Z" fill="white"/>
<path opacity="0.5" d="M285.98 101.79V55.2698L245.69 32.0098L205.41 55.2698V101.79L245.69 125.05L285.98 101.79Z" fill="url(#paint1_linear_46_679)"/>
<path d="M195.85 101.79V55.2698L155.56 32.0098L115.27 55.2698V101.79L155.56 125.05L195.85 101.79Z" fill="white"/>
<path opacity="0.5" d="M195.85 101.79V55.2698L155.56 32.0098L115.27 55.2698V101.79L155.56 125.05L195.85 101.79Z" fill="url(#paint2_linear_46_679)"/>
<path d="M105.71 101.79V55.2698L65.4299 32.0098L25.1399 55.2698V101.79L65.4299 125.05L105.71 101.79Z" fill="white"/>
<path opacity="0.3" d="M105.71 101.79V55.2698L65.4299 32.0098L25.1399 55.2698V101.79L65.4299 125.05L105.71 101.79Z" fill="url(#paint3_linear_46_679)"/>
<path d="M15.58 55.2698L0 46.2798V110.79L15.58 101.79V55.2698Z" fill="white"/>
<path opacity="0.1" d="M15.58 55.2698L0 46.2798V110.79L15.58 101.79V55.2698Z" fill="url(#paint4_linear_46_679)"/>
<path d="M385.67 101.79L402 111.22V45.8501L385.67 55.2701V101.79Z" fill="white"/>
<path opacity="0.1" d="M385.67 101.79L402 111.22V45.8501L385.67 55.2701V101.79Z" fill="url(#paint5_linear_46_679)"/>
<path d="M376.11 101.79V55.2698L335.83 32.0098L295.54 55.2698V101.79L335.83 125.05L376.11 101.79Z" fill="white"/>
<path opacity="0.3" d="M376.11 101.79V55.2698L335.83 32.0098L295.54 55.2698V101.79L335.83 125.05L376.11 101.79Z" fill="url(#paint6_linear_46_679)"/>
<path d="M200.63 46.52L240.91 23.26V0H160.34V23.26L200.63 46.52Z" fill="white"/>
<path opacity="0.3" d="M200.63 46.52L240.91 23.26V0H160.34V23.26L200.63 46.52Z" fill="url(#paint7_linear_46_679)"/>
<path d="M110.49 46.52L150.78 23.26V0H70.21V23.26L110.49 46.52Z" fill="white"/>
<path opacity="0.3" d="M110.49 46.52L150.78 23.26V0H70.21V23.26L110.49 46.52Z" fill="url(#paint8_linear_46_679)"/>
<path d="M60.65 23.26V0H0V34.76L20.36 46.52L60.65 23.26Z" fill="white"/>
<path opacity="0.1" d="M60.65 23.26V0H0V34.76L20.36 46.52L60.65 23.26Z" fill="url(#paint9_linear_46_679)"/>
<path d="M380.89 46.52L402 34.33V0H340.61V23.26L380.89 46.52Z" fill="white"/>
<path opacity="0.1" d="M380.89 46.52L402 34.33V0H340.61V23.26L380.89 46.52Z" fill="url(#paint10_linear_46_679)"/>
<path d="M290.76 46.52L331.05 23.26V0H250.47V23.26L290.76 46.52Z" fill="white"/>
<path opacity="0.3" d="M290.76 46.52L331.05 23.26V0H250.47V23.26L290.76 46.52Z" fill="url(#paint11_linear_46_679)"/>
<path d="M200.63 267.05L160.34 290.31V316H240.91V290.31L200.63 267.05Z" fill="white"/>
<path opacity="0.3" d="M200.63 267.05L160.34 290.31V316H240.91V290.31L200.63 267.05Z" fill="url(#paint12_linear_46_679)"/>
<path d="M110.49 267.05L70.21 290.31V316H150.78V290.31L110.49 267.05Z" fill="white"/>
<path opacity="0.3" d="M110.49 267.05L70.21 290.31V316H150.78V290.31L110.49 267.05Z" fill="url(#paint13_linear_46_679)"/>
<path d="M20.36 267.05L0 278.8V316H60.65V290.31L20.36 267.05Z" fill="white"/>
<path opacity="0.1" d="M20.36 267.05L0 278.8V316H60.65V290.31L20.36 267.05Z" fill="url(#paint14_linear_46_679)"/>
<path d="M340.61 290.31V316H402V279.24L380.89 267.05L340.61 290.31Z" fill="white"/>
<path opacity="0.1" d="M340.61 290.31V316H402V279.24L380.89 267.05L340.61 290.31Z" fill="url(#paint15_linear_46_679)"/>
<path d="M290.76 267.05L250.47 290.31V316H331.05V290.31L290.76 267.05Z" fill="white"/>
<path opacity="0.3" d="M290.76 267.05L250.47 290.31V316H331.05V290.31L290.76 267.05Z" fill="url(#paint16_linear_46_679)"/>
<path d="M205.41 212.48V259L245.69 282.26L285.98 259V212.48L245.69 189.22L205.41 212.48Z" fill="white"/>
<path opacity="0.5" d="M205.41 212.48V259L245.69 282.26L285.98 259V212.48L245.69 189.22L205.41 212.48Z" fill="url(#paint17_linear_46_679)"/>
<path d="M115.27 212.48V259L155.56 282.26L195.85 259V212.48L155.56 189.22L115.27 212.48Z" fill="white"/>
<path opacity="0.5" d="M115.27 212.48V259L155.56 282.26L195.85 259V212.48L155.56 189.22L115.27 212.48Z" fill="url(#paint18_linear_46_679)"/>
<path d="M25.1399 212.48V259L65.4299 282.26L105.71 259V212.48L65.4299 189.22L25.1399 212.48Z" fill="white"/>
<path opacity="0.3" d="M25.1399 212.48V259L65.4299 282.26L105.71 259V212.48L65.4299 189.22L25.1399 212.48Z" fill="url(#paint19_linear_46_679)"/>
<path d="M15.58 212.48L0 203.49V267.99L15.58 259V212.48Z" fill="white"/>
<path opacity="0.1" d="M15.58 212.48L0 203.49V267.99L15.58 259V212.48Z" fill="url(#paint20_linear_46_679)"/>
<path d="M385.67 212.48V259L402 268.43V203.05L385.67 212.48Z" fill="white"/>
<path opacity="0.1" d="M385.67 212.48V259L402 268.43V203.05L385.67 212.48Z" fill="url(#paint21_linear_46_679)"/>
<path d="M295.54 212.48V259L335.83 282.26L376.11 259V212.48L335.83 189.22L295.54 212.48Z" fill="white"/>
<path opacity="0.3" d="M295.54 212.48V259L335.83 282.26L376.11 259V212.48L335.83 189.22L295.54 212.48Z" fill="url(#paint22_linear_46_679)"/>
<path d="M151.3 133.53L111.01 110.27L70.72 133.53V180.04L111.01 203.3L151.3 180.04V133.53Z" fill="white"/>
<path opacity="0.5" d="M151.3 133.53L111.01 110.27L70.72 133.53V180.04L111.01 203.3L151.3 180.04V133.53Z" fill="url(#paint23_linear_46_679)"/>
<path d="M331.28 133.53L290.99 110.27L250.7 133.53V180.04L290.99 203.3L331.28 180.04V133.53Z" fill="white"/>
<path opacity="0.5" d="M331.28 133.53L290.99 110.27L250.7 133.53V180.04L290.99 203.3L331.28 180.04V133.53Z" fill="url(#paint24_linear_46_679)"/>
<path d="M340.69 133.53V180.04L380.98 203.3L402 191.17V122.4L380.98 110.27L340.69 133.53Z" fill="white"/>
<path opacity="0.3" d="M340.69 133.53V180.04L380.98 203.3L402 191.17V122.4L380.98 110.27L340.69 133.53Z" fill="url(#paint25_linear_46_679)"/>
<path d="M61.31 180.04V133.53L21.02 110.27L0 122.4V191.17L21.02 203.3L61.31 180.04Z" fill="white"/>
<path opacity="0.3" d="M61.31 180.04V133.53L21.02 110.27L0 122.4V191.17L21.02 203.3L61.31 180.04Z" fill="url(#paint26_linear_46_679)"/>
</g>
<defs>
<linearGradient id="paint0_linear_46_679" x1="-137.55" y1="-38.17" x2="610" y2="392.31" gradientUnits="userSpaceOnUse"><stop stop-color="#47C3D3"/><stop offset="0.18" stop-color="#45BFD2"/><stop offset="0.35" stop-color="#40B4D1"/><stop offset="0.51" stop-color="#38A1CF"/><stop offset="0.67" stop-color="#2C86CC"/><stop offset="0.83" stop-color="#1D64C9"/><stop offset="0.99" stop-color="#0B3BC5"/><stop offset="1" stop-color="#0A37C5"/></linearGradient>
<linearGradient id="paint1_linear_46_679" x1="-92.5801" y1="-116.26" x2="654.97" y2="314.22" gradientUnits="userSpaceOnUse"><stop stop-color="#47C3D3"/><stop offset="0.18" stop-color="#45BFD2"/><stop offset="0.35" stop-color="#40B4D1"/><stop offset="0.51" stop-color="#38A1CF"/><stop offset="0.67" stop-color="#2C86CC"/><stop offset="0.83" stop-color="#1D64C9"/><stop offset="0.99" stop-color="#0B3BC5"/><stop offset="1" stop-color="#0A37C5"/></linearGradient>
<linearGradient id="paint2_linear_46_679" x1="-115.02" y1="-77.2902" x2="632.53" y2="353.2" gradientUnits="userSpaceOnUse"><stop stop-color="#47C3D3"/><stop offset="0.18" stop-color="#45BFD2"/><stop offset="0.35" stop-color="#40B4D1"/><stop offset="0.51" stop-color="#38A1CF"/><stop offset="0.67" stop-color="#2C86CC"/><stop offset="0.83" stop-color="#1D64C9"/><stop offset="0.99" stop-color="#0B3BC5"/><stop offset="1" stop-color="#0A37C5"/></linearGradient>
<linearGradient id="paint3_linear_46_679" x1="-137.47" y1="-38.3102" x2="610.08" y2="392.18" gradientUnits="userSpaceOnUse"><stop stop-color="#47C3D3"/><stop offset="0.18" stop-color="#45BFD2"/><stop offset="0.35" stop-color="#40B4D1"/><stop offset="0.51" stop-color="#38A1CF"/><stop offset="0.67" stop-color="#2C86CC"/><stop offset="0.83" stop-color="#1D64C9"/><stop offset="0.99" stop-color="#0B3BC5"/><stop offset="1" stop-color="#0A37C5"/></linearGradient>
<linearGradient id="paint4_linear_46_679" x1="-153.76" y1="-10.0102" x2="593.79" y2="420.47" gradientUnits="userSpaceOnUse"><stop stop-color="#47C3D3"/><stop offset="0.18" stop-color="#45BFD2"/><stop offset="0.35" stop-color="#40B4D1"/><stop offset="0.51" stop-color="#38A1CF"/><stop offset="0.67" stop-color="#2C86CC"/><stop offset="0.83" stop-color="#1D64C9"/><stop offset="0.99" stop-color="#0B3BC5"/><stop offset="1" stop-color="#0A37C5"/></linearGradient>
<linearGradient id="paint5_linear_46_679" x1="-53.6497" y1="-183.86" x2="693.9" y2="246.63" gradientUnits="userSpaceOnUse"><stop stop-color="#47C3D3"/><stop offset="0.18" stop-color="#45BFD2"/><stop offset="0.35" stop-color="#40B4D1"/><stop offset="0.51" stop-color="#38A1CF"/><stop offset="0.67" stop-color="#2C86CC"/><stop offset="0.83" stop-color="#1D64C9"/><stop offset="0.99" stop-color="#0B3BC5"/><stop offset="1" stop-color="#0A37C5"/></linearGradient>
<linearGradient id="paint6_linear_46_679" x1="-70.1299" y1="-155.24" x2="677.42" y2="275.24" gradientUnits="userSpaceOnUse"><stop stop-color="#47C3D3"/><stop offset="0.18" stop-color="#45BFD2"/><stop offset="0.35" stop-color="#40B4D1"/><stop offset="0.51" stop-color="#38A1CF"/><stop offset="0.67" stop-color="#2C86CC"/><stop offset="0.83" stop-color="#1D64C9"/><stop offset="0.99" stop-color="#0B3BC5"/><stop offset="1" stop-color="#0A37C5"/></linearGradient>
<linearGradient id="paint7_linear_46_679" x1="-74.8799" y1="-146.99" x2="672.67" y2="283.49" gradientUnits="userSpaceOnUse"><stop stop-color="#47C3D3"/><stop offset="0.18" stop-color="#45BFD2"/><stop offset="0.35" stop-color="#40B4D1"/><stop offset="0.51" stop-color="#38A1CF"/><stop offset="0.67" stop-color="#2C86CC"/><stop offset="0.83" stop-color="#1D64C9"/><stop offset="0.99" stop-color="#0B3BC5"/><stop offset="1" stop-color="#0A37C5"/></linearGradient>
<linearGradient id="paint8_linear_46_679" x1="-97.33" y1="-108.02" x2="650.22" y2="322.47" gradientUnits="userSpaceOnUse"><stop stop-color="#47C3D3"/><stop offset="0.18" stop-color="#45BFD2"/><stop offset="0.35" stop-color="#40B4D1"/><stop offset="0.51" stop-color="#38A1CF"/><stop offset="0.67" stop-color="#2C86CC"/><stop offset="0.83" stop-color="#1D64C9"/><stop offset="0.99" stop-color="#0B3BC5"/><stop offset="1" stop-color="#0A37C5"/></linearGradient>
<linearGradient id="paint9_linear_46_679" x1="-119.77" y1="-69.04" x2="627.78" y2="361.45" gradientUnits="userSpaceOnUse"><stop stop-color="#47C3D3"/><stop offset="0.18" stop-color="#45BFD2"/><stop offset="0.35" stop-color="#40B4D1"/><stop offset="0.51" stop-color="#38A1CF"/><stop offset="0.67" stop-color="#2C86CC"/><stop offset="0.83" stop-color="#1D64C9"/><stop offset="0.99" stop-color="#0B3BC5"/><stop offset="1" stop-color="#0A37C5"/></linearGradient>
<linearGradient id="paint10_linear_46_679" x1="-32.3802" y1="-220.8" x2="715.17" y2="209.68" gradientUnits="userSpaceOnUse"><stop stop-color="#47C3D3"/><stop offset="0.18" stop-color="#45BFD2"/><stop offset="0.35" stop-color="#40B4D1"/><stop offset="0.51" stop-color="#38A1CF"/><stop offset="0.67" stop-color="#2C86CC"/><stop offset="0.83" stop-color="#1D64C9"/><stop offset="0.99" stop-color="#0B3BC5"/><stop offset="1" stop-color="#0A37C5"/></linearGradient>
<linearGradient id="paint11_linear_46_679" x1="-52.44" y1="-185.97" x2="695.12" y2="244.51" gradientUnits="userSpaceOnUse"><stop stop-color="#47C3D3"/><stop offset="0.18" stop-color="#45BFD2"/><stop offset="0.35" stop-color="#40B4D1"/><stop offset="0.51" stop-color="#38A1CF"/><stop offset="0.67" stop-color="#2C86CC"/><stop offset="0.83" stop-color="#1D64C9"/><stop offset="0.99" stop-color="#0B3BC5"/><stop offset="1" stop-color="#0A37C5"/></linearGradient>
<linearGradient id="paint12_linear_46_679" x1="-200.93" y1="71.8898" x2="546.62" y2="502.37" gradientUnits="userSpaceOnUse"><stop stop-color="#47C3D3"/><stop offset="0.18" stop-color="#45BFD2"/><stop offset="0.35" stop-color="#40B4D1"/><stop offset="0.51" stop-color="#38A1CF"/><stop offset="0.67" stop-color="#2C86CC"/><stop offset="0.83" stop-color="#1D64C9"/><stop offset="0.99" stop-color="#0B3BC5"/><stop offset="1" stop-color="#0A37C5"/></linearGradient>
<linearGradient id="paint13_linear_46_679" x1="-223.37" y1="110.86" x2="524.18" y2="541.35" gradientUnits="userSpaceOnUse"><stop stop-color="#47C3D3"/><stop offset="0.18" stop-color="#45BFD2"/><stop offset="0.35" stop-color="#40B4D1"/><stop offset="0.51" stop-color="#38A1CF"/><stop offset="0.67" stop-color="#2C86CC"/><stop offset="0.83" stop-color="#1D64C9"/><stop offset="0.99" stop-color="#0B3BC5"/><stop offset="1" stop-color="#0A37C5"/></linearGradient>
<linearGradient id="paint14_linear_46_679" x1="-243.34" y1="145.53" x2="504.21" y2="576.02" gradientUnits="userSpaceOnUse"><stop stop-color="#47C3D3"/><stop offset="0.18" stop-color="#45BFD2"/><stop offset="0.35" stop-color="#40B4D1"/><stop offset="0.51" stop-color="#38A1CF"/><stop offset="0.67" stop-color="#2C86CC"/><stop offset="0.83" stop-color="#1D64C9"/><stop offset="0.99" stop-color="#0B3BC5"/><stop offset="1" stop-color="#0A37C5"/></linearGradient>
<linearGradient id="paint15_linear_46_679" x1="-156.03" y1="-6.07024" x2="591.52" y2="424.41" gradientUnits="userSpaceOnUse"><stop stop-color="#47C3D3"/><stop offset="0.18" stop-color="#45BFD2"/><stop offset="0.35" stop-color="#40B4D1"/><stop offset="0.51" stop-color="#38A1CF"/><stop offset="0.67" stop-color="#2C86CC"/><stop offset="0.83" stop-color="#1D64C9"/><stop offset="0.99" stop-color="#0B3BC5"/><stop offset="1" stop-color="#0A37C5"/></linearGradient>
<linearGradient id="paint16_linear_46_679" x1="-178.48" y1="32.9097" x2="569.07" y2="463.39" gradientUnits="userSpaceOnUse"><stop stop-color="#47C3D3"/><stop offset="0.18" stop-color="#45BFD2"/><stop offset="0.35" stop-color="#40B4D1"/><stop offset="0.51" stop-color="#38A1CF"/><stop offset="0.67" stop-color="#2C86CC"/><stop offset="0.83" stop-color="#1D64C9"/><stop offset="0.99" stop-color="#0B3BC5"/><stop offset="1" stop-color="#0A37C5"/></linearGradient>
<linearGradient id="paint17_linear_46_679" x1="-160.56" y1="1.7902" x2="586.99" y2="432.28" gradientUnits="userSpaceOnUse"><stop stop-color="#47C3D3"/><stop offset="0.18" stop-color="#45BFD2"/><stop offset="0.35" stop-color="#40B4D1"/><stop offset="0.51" stop-color="#38A1CF"/><stop offset="0.67" stop-color="#2C86CC"/><stop offset="0.83" stop-color="#1D64C9"/><stop offset="0.99" stop-color="#0B3BC5"/><stop offset="1" stop-color="#0A37C5"/></linearGradient>
<linearGradient id="paint18_linear_46_679" x1="-183.01" y1="40.7702" x2="564.54" y2="471.26" gradientUnits="userSpaceOnUse"><stop stop-color="#47C3D3"/><stop offset="0.18" stop-color="#45BFD2"/><stop offset="0.35" stop-color="#40B4D1"/><stop offset="0.51" stop-color="#38A1CF"/><stop offset="0.67" stop-color="#2C86CC"/><stop offset="0.83" stop-color="#1D64C9"/><stop offset="0.99" stop-color="#0B3BC5"/><stop offset="1" stop-color="#0A37C5"/></linearGradient>
<linearGradient id="paint19_linear_46_679" x1="-205.46" y1="79.7502" x2="542.1" y2="510.24" gradientUnits="userSpaceOnUse"><stop stop-color="#47C3D3"/><stop offset="0.18" stop-color="#45BFD2"/><stop offset="0.35" stop-color="#40B4D1"/><stop offset="0.51" stop-color="#38A1CF"/><stop offset="0.67" stop-color="#2C86CC"/><stop offset="0.83" stop-color="#1D64C9"/><stop offset="0.99" stop-color="#0B3BC5"/><stop offset="1" stop-color="#0A37C5"/></linearGradient>
<linearGradient id="paint20_linear_46_679" x1="-221.75" y1="108.04" x2="525.8" y2="538.53" gradientUnits="userSpaceOnUse"><stop stop-color="#47C3D3"/><stop offset="0.18" stop-color="#45BFD2"/><stop offset="0.35" stop-color="#40B4D1"/><stop offset="0.51" stop-color="#38A1CF"/><stop offset="0.67" stop-color="#2C86CC"/><stop offset="0.83" stop-color="#1D64C9"/><stop offset="0.99" stop-color="#0B3BC5"/><stop offset="1" stop-color="#0A37C5"/></linearGradient>
<linearGradient id="paint21_linear_46_679" x1="-121.64" y1="-65.8002" x2="625.91" y2="364.679" gradientUnits="userSpaceOnUse"><stop stop-color="#47C3D3"/><stop offset="0.18" stop-color="#45BFD2"/><stop offset="0.35" stop-color="#40B4D1"/><stop offset="0.51" stop-color="#38A1CF"/><stop offset="0.67" stop-color="#2C86CC"/><stop offset="0.83" stop-color="#1D64C9"/><stop offset="0.99" stop-color="#0B3BC5"/><stop offset="1" stop-color="#0A37C5"/></linearGradient>
<linearGradient id="paint22_linear_46_679" x1="-138.12" y1="-37.1898" x2="609.43" y2="393.3" gradientUnits="userSpaceOnUse"><stop stop-color="#47C3D3"/><stop offset="0.18" stop-color="#45BFD2"/><stop offset="0.35" stop-color="#40B4D1"/><stop offset="0.51" stop-color="#38A1CF"/><stop offset="0.67" stop-color="#2C86CC"/><stop offset="0.83" stop-color="#1D64C9"/><stop offset="0.99" stop-color="#0B3BC5"/><stop offset="1" stop-color="#0A37C5"/></linearGradient>
<linearGradient id="paint23_linear_46_679" x1="-159.96" y1="0.740016" x2="587.59" y2="431.23" gradientUnits="userSpaceOnUse"><stop stop-color="#47C3D3"/><stop offset="0.18" stop-color="#45BFD2"/><stop offset="0.35" stop-color="#40B4D1"/><stop offset="0.51" stop-color="#38A1CF"/><stop offset="0.67" stop-color="#2C86CC"/><stop offset="0.83" stop-color="#1D64C9"/><stop offset="0.99" stop-color="#0B3BC5"/><stop offset="1" stop-color="#0A37C5"/></linearGradient>
<linearGradient id="paint24_linear_46_679" x1="-115.14" y1="-77.09" x2="632.41" y2="353.4" gradientUnits="userSpaceOnUse"><stop stop-color="#47C3D3"/><stop offset="0.18" stop-color="#45BFD2"/><stop offset="0.35" stop-color="#40B4D1"/><stop offset="0.51" stop-color="#38A1CF"/><stop offset="0.67" stop-color="#2C86CC"/><stop offset="0.83" stop-color="#1D64C9"/><stop offset="0.99" stop-color="#0B3BC5"/><stop offset="1" stop-color="#0A37C5"/></linearGradient>
<linearGradient id="paint25_linear_46_679" x1="-92.73" y1="-116" x2="654.82" y2="314.48" gradientUnits="userSpaceOnUse"><stop stop-color="#47C3D3"/><stop offset="0.18" stop-color="#45BFD2"/><stop offset="0.35" stop-color="#40B4D1"/><stop offset="0.51" stop-color="#38A1CF"/><stop offset="0.67" stop-color="#2C86CC"/><stop offset="0.83" stop-color="#1D64C9"/><stop offset="0.99" stop-color="#0B3BC5"/><stop offset="1" stop-color="#0A37C5"/></linearGradient>
<linearGradient id="paint26_linear_46_679" x1="-182.37" y1="39.66" x2="565.18" y2="470.15" gradientUnits="userSpaceOnUse"><stop stop-color="#47C3D3"/><stop offset="0.18" stop-color="#45BFD2"/><stop offset="0.35" stop-color="#40B4D1"/><stop offset="0.51" stop-color="#38A1CF"/><stop offset="0.67" stop-color="#2C86CC"/><stop offset="0.83" stop-color="#1D64C9"/><stop offset="0.99" stop-color="#0B3BC5"/><stop offset="1" stop-color="#0A37C5"/></linearGradient>
<clipPath id="clip0_46_679"><rect width="402" height="316" fill="white"/></clipPath>
</defs>
</svg>
