<svg width="207" height="273" viewBox="0 0 207 273" fill="none" xmlns="http://www.w3.org/2000/svg">
<g clip-path="url(#clip0_46_648)">
<path d="M103.508 191.262V192.886" stroke="#727272" stroke-width="1.25" stroke-miterlimit="10"/>
<path d="M103.508 195.322V198.993" stroke="#727272" stroke-width="1.25" stroke-miterlimit="10" stroke-dasharray="1.5 1.5"/>
<path d="M103.508 200.21V201.834" stroke="#727272" stroke-width="1.25" stroke-miterlimit="10"/>
<path d="M103.508 105.806V104.182" stroke="#727272" stroke-width="1.25" stroke-miterlimit="10"/>
<path d="M103.508 101.746V98.0757" stroke="#727272" stroke-width="1.25" stroke-miterlimit="10" stroke-dasharray="1.5 1.5"/>
<path d="M103.508 96.8574V95.2334" stroke="#727272" stroke-width="1.25" stroke-miterlimit="10"/>
<path d="M32.333 107.43V105.806H33.9602" stroke="#727272" stroke-width="1.25" stroke-miterlimit="10"/>
<path d="M37.1985 105.806H171.429" stroke="#727272" stroke-width="1.25" stroke-miterlimit="10" stroke-dasharray="1.99 1.99"/>
<path d="M173.04 105.806H174.667V107.43" stroke="#727272" stroke-width="1.25" stroke-miterlimit="10"/>
<path d="M174.667 110.727V187.998" stroke="#727272" stroke-width="1.25" stroke-miterlimit="10" stroke-dasharray="2.02 2.02"/>
<path d="M174.667 189.638V191.262H173.04" stroke="#727272" stroke-width="1.25" stroke-miterlimit="10"/>
<path d="M169.802 191.262H35.5713" stroke="#727272" stroke-width="1.25" stroke-miterlimit="10" stroke-dasharray="1.99 1.99"/>
<path d="M33.9602 191.262H32.333V189.638" stroke="#727272" stroke-width="1.25" stroke-miterlimit="10"/>
<path d="M32.333 186.342V109.086" stroke="#727272" stroke-width="1.25" stroke-miterlimit="10" stroke-dasharray="2.02 2.02"/>
<path d="M145.637 0H61.3466C58.2731 0 55.7815 2.4867 55.7815 5.55419V89.6791C55.7815 92.7466 58.2731 95.2333 61.3466 95.2333H145.637C148.711 95.2333 151.202 92.7466 151.202 89.6791V5.55419C151.202 2.4867 148.711 0 145.637 0Z" fill="#0A37C5"/>
<path d="M59.101 116.151H5.56513C2.49159 116.151 0 118.638 0 121.705V175.136C0 178.203 2.49159 180.69 5.56513 180.69H59.101C62.1745 180.69 64.6661 178.203 64.6661 175.136V121.705C64.6661 118.638 62.1745 116.151 59.101 116.151Z" fill="#47C3D3"/>
<path d="M130.276 116.151H76.7402C73.6666 116.151 71.175 118.638 71.175 121.705V175.136C71.175 178.203 73.6666 180.69 76.7402 180.69H130.276C133.35 180.69 135.841 178.203 135.841 175.136V121.705C135.841 118.638 133.35 116.151 130.276 116.151Z" fill="#AF1767"/>
<path d="M201.435 116.151H147.899C144.826 116.151 142.334 118.638 142.334 121.705V175.136C142.334 178.203 144.826 180.69 147.899 180.69H201.435C204.509 180.69 207 178.203 207 175.136V121.705C207 118.638 204.509 116.151 201.435 116.151Z" fill="#5337C5"/>
<path d="M102.743 273C122.434 273 138.396 257.069 138.396 237.418C138.396 217.766 122.434 201.835 102.743 201.835C83.053 201.835 67.0908 217.766 67.0908 237.418C67.0908 257.069 83.053 273 102.743 273Z" fill="white"/>
<path d="M103.508 83.1993C123.198 83.1993 139.161 67.2685 139.161 47.6167C139.161 27.965 123.198 12.0342 103.508 12.0342C83.8177 12.0342 67.8555 27.965 67.8555 47.6167C67.8555 67.2685 83.8177 83.1993 103.508 83.1993Z" fill="#5082FF"/>
<path d="M120.562 44.5635L96.4948 30.6943C94.1353 29.3463 91.2063 31.0353 91.2063 33.7475V61.486C91.2063 64.1981 94.1516 65.8871 96.4948 64.5392L120.562 50.6699C122.921 49.322 122.921 45.9277 120.562 44.5635Z" fill="white"/>
<path d="M115.371 235.323L96.4786 224.442C94.8676 223.516 92.8499 224.669 92.8499 226.52V248.299C92.8499 250.15 94.8676 251.319 96.4786 250.377L115.371 239.496C116.982 238.571 116.982 236.248 115.371 235.323Z" fill="#0A37C5"/>
<path d="M32.333 130.865C22.6185 130.865 14.7427 138.725 14.7427 148.421C14.7427 158.116 22.6185 165.976 32.333 165.976C42.0476 165.976 49.9234 158.116 49.9234 148.421C49.9234 138.725 42.0476 130.865 32.333 130.865ZM42.4219 144.36L30.8034 155.875C30.0549 156.183 29.0298 156.183 28.3463 155.696C27.2561 154.105 22.6998 150.84 22.0978 149.362C21.4143 147.706 22.4232 145.806 24.3108 146.001C25.9868 146.163 29.1437 150.678 29.7946 150.548L39.1023 141.291C39.3952 141.047 39.8183 140.82 40.2088 140.771C42.0801 140.544 43.4958 142.753 42.4219 144.377V144.36Z" fill="white"/>
<path d="M105.754 130.394C107.837 131.189 107.397 133.414 107.82 135.201L109.903 136.013C111.27 135.136 112.637 133.203 114.476 134.031C114.703 134.129 117.665 137.036 117.828 137.312C118.934 139.147 116.851 140.674 115.956 142.038L116.77 144.117C118.56 144.506 120.789 144.1 121.587 146.179V150.678C120.822 152.675 118.658 152.415 116.884 152.675L115.973 154.819C116.851 156.183 118.788 157.547 117.958 159.383C117.86 159.61 114.948 162.566 114.671 162.728C112.832 163.832 111.303 161.754 109.936 160.86L107.853 161.672C107.43 163.459 107.869 165.684 105.786 166.48H101.279C99.1472 165.668 99.7004 163.41 99.1634 161.624L97.1294 160.877C95.7625 161.77 94.2329 163.865 92.3942 162.744C92.1175 162.582 89.2211 159.626 89.1072 159.399C88.261 157.564 90.2137 156.199 91.0924 154.835L90.2788 152.756C88.4888 152.334 86.2595 152.773 85.4622 150.694V146.195C86.2595 144.117 88.4888 144.555 90.2788 144.133L91.0924 142.054C90.1974 140.69 88.0983 139.163 89.2211 137.328C89.3838 137.052 92.3453 134.161 92.5732 134.048C94.4119 133.203 95.7788 135.152 97.1457 136.029L99.2285 135.217C99.6516 133.43 99.2123 131.206 101.295 130.41H105.803L105.754 130.394ZM102.337 140.998C93.2078 142.087 94.1678 156.947 104.533 155.858C113.825 154.884 112.865 139.732 102.337 140.998Z" fill="white"/>
<path d="M189.572 148.648C187.115 156.654 177.954 160.568 170.42 156.817C168.158 159.561 166.043 162.452 163.716 165.148C161.112 167.194 157.825 164.06 159.713 161.364L166.043 153.374C161.291 147.641 162.007 139.147 167.637 134.307C169.818 132.424 172.763 131.222 175.643 131.043C185.146 130.475 192.371 139.488 189.572 148.648ZM169.102 150.499C173.349 155.923 181.843 155.063 184.984 148.956C188.303 142.509 183.34 134.86 176.132 135.168C168.418 135.509 164.35 144.425 169.102 150.499Z" fill="white"/>
</g>
<defs>
<clipPath id="clip0_46_648"><rect width="207" height="273" fill="white"/></clipPath>
</defs>
</svg>
