<svg width="265" height="55" viewBox="0 0 265 55" fill="none" xmlns="http://www.w3.org/2000/svg">
<path d="M83.611 23.2732H76.0039V17.13H98.2438V23.2732H90.6367V42.4245H83.611V23.2732Z" fill="black"/>
<path d="M104.943 17.13H111.968V26.5987H120.987V17.13H128.013V42.4245H120.987V32.8114H111.968V42.4245H104.943V17.13Z" fill="black"/>
<path d="M136.271 17.13H143.334V42.4245H136.271V17.13Z" fill="black"/>
<path d="M151.59 17.13H158.147L168.578 30.5017V17.13H175.531V42.4245H169.374L158.543 28.5476V42.4245H151.59V17.13Z" fill="black"/>
<path d="M183.645 17.13H190.67V27.3927L199.4 17.13H207.731L198.133 28.0075L208.058 42.4245H199.617L193.243 33.028L190.67 35.883V42.4245H183.645V17.13Z" fill="black"/>
<path d="M212.867 17.0765H222.961C223.969 17.0765 224.941 17.1834 225.874 17.4C226.806 17.6165 227.631 17.964 228.352 18.4452C229.073 18.9264 229.646 19.5493 230.075 20.3085C230.504 21.0677 230.718 21.9953 230.718 23.086C230.718 23.6768 230.662 24.2623 230.547 24.837C230.432 25.4118 230.228 25.9598 229.936 26.4784C229.644 26.9997 229.247 27.4782 228.746 27.9167C228.245 28.3577 227.61 28.74 226.838 29.0715C227.779 29.3175 228.559 29.6543 229.178 30.0874C229.797 30.5178 230.29 31.0123 230.659 31.571C231.029 32.1297 231.286 32.7339 231.434 33.3835C231.581 34.0358 231.656 34.7068 231.656 35.3992C231.656 35.8402 231.621 36.3188 231.549 36.8401C231.477 37.3613 231.332 37.88 231.118 38.4012C230.9 38.9225 230.598 39.4251 230.209 39.9116C229.818 40.3982 229.301 40.8259 228.658 41.2002C228.015 41.5718 227.224 41.8712 226.294 42.093C225.362 42.3176 224.253 42.4299 222.964 42.4299H212.87V17.0765H212.867ZM214.47 28.4941H222.961C224.011 28.4941 224.931 28.3577 225.713 28.0877C226.498 27.8177 227.147 27.4515 227.664 26.9917C228.181 26.5319 228.569 25.9946 228.827 25.3797C229.084 24.7675 229.215 24.1233 229.215 23.4443C229.215 22.5728 229.06 21.8243 228.752 21.1987C228.443 20.5732 228.007 20.0626 227.449 19.6643C226.889 19.2659 226.225 18.9719 225.453 18.7821C224.681 18.5923 223.835 18.496 222.91 18.496H214.47V28.4914V28.4941ZM214.47 40.9596H222.961C223.572 40.9676 224.172 40.9435 224.767 40.8847C225.359 40.8259 225.922 40.7163 226.453 40.5559C226.983 40.3955 227.471 40.1763 227.916 39.9036C228.36 39.6283 228.746 39.2834 229.073 38.8637C229.4 38.444 229.655 37.9495 229.837 37.3747C230.019 36.8 230.11 36.1263 230.11 35.3591C230.11 34.4368 229.952 33.6348 229.638 32.9478C229.325 32.2634 228.864 31.6967 228.253 31.2476C227.642 30.7984 226.895 30.4643 226.01 30.2397C225.123 30.0152 224.111 29.9029 222.966 29.9029H214.475V40.9622L214.47 40.9596Z" fill="black"/>
<path d="M238.098 17.0765H239.7V42.4299H238.098V17.0765Z" fill="black"/>
<path d="M246.578 17.0765H265V18.4452H256.559V42.4299H254.957V18.4452H246.578V17.0765Z" fill="black"/>
<path d="M39.2037 46.659C37.9497 45.0363 37.304 43.0287 37.304 40.9783V8.67441C37.304 8.67441 30.9187 3.91331 29.445 3.91331C27.9712 3.91331 27.1299 5.24193 27.1299 5.24193V21.0891C27.1299 21.1052 27.1352 21.1319 27.1352 21.1506L27.1299 21.1559V45.2662C27.1299 48.2897 29.3753 54.9996 37.3066 54.9996C45.238 54.9996 48.1693 49.9471 48.1693 49.9471C43.4614 50.5005 40.7444 48.6479 39.2064 46.659H39.2037Z" fill="url(#paint0_linear_76_671)"/>
<path d="M40.1791 30.63C41.4064 31.0979 42.6362 31.5657 43.8635 32.0362C43.8635 32.0362 49.3913 34.7041 50.2353 41.7963C51.1088 49.1371 45.1818 52.8396 45.1818 52.8396L45.8222 52.4226L56.6045 43.288C56.6045 43.288 60.1441 39.786 59.0884 33.5011C58.0327 27.2163 53.0568 24.7114 53.0568 24.7114L35.4096 17.9373C35.4096 17.9373 32.7944 17.2022 30.7714 18.7126C28.7484 20.223 25.6697 22.8668 25.6697 22.8668C25.182 23.2972 24.7747 23.8025 24.4666 24.3799C24.7238 24.5323 24.9891 24.6713 25.2597 24.7969" fill="url(#paint1_linear_76_671)"/>
<path d="M22.5827 12.9356L12.5132 19.8247L41.626 31.1834L50.7068 23.7891L22.5827 12.9356Z" fill="url(#paint2_linear_76_671)"/>
<path d="M27.1274 7.28164C27.1274 7.28164 26.9103 5.44777 29.1611 6.07064L43.1829 11.9786C43.1829 11.9786 47.58 14.3899 48.2391 20.3433C48.834 25.7166 43.6706 29.518 43.6706 29.518L53.1319 21.7735C53.1319 21.7735 56.6046 18.9425 55.9025 13.6467C55.2005 8.35095 51.1035 6.10539 51.1035 6.10539L37.1005 0.197451C37.1005 0.197451 34.9301 -0.494928 33.1911 0.713394C31.4521 1.91904 28.2018 3.76895 28.2018 3.76895C28.2018 3.76895 27.1274 4.3143 27.1274 5.24193C27.1274 5.24193 27.0979 6.41015 27.1274 7.28164Z" fill="url(#paint3_linear_76_671)"/>
<path d="M13.4859 15.9965L7.97949 13.7189L14.1959 9.72501L19.7961 11.8823" fill="url(#paint4_linear_76_671)"/>
<path d="M3.62269 16.3654L0 14.9112L4.1827 12.2432L7.67141 13.7456L3.62269 16.3654Z" fill="url(#paint5_linear_76_671)"/>
<defs>
<linearGradient id="paint0_linear_76_671" x1="37.7353" y1="4.65648" x2="37.5327" y2="58.2904" gradientUnits="userSpaceOnUse">
<stop stop-color="#47C2D2"/>
<stop offset="1" stop-color="#0A37C4"/>
</linearGradient>
<linearGradient id="paint1_linear_76_671" x1="43.6805" y1="40.2819" x2="36.5265" y2="-2.52244" gradientUnits="userSpaceOnUse">
<stop stop-color="#AE1767"/>
<stop offset="1" stop-color="#0A37C4"/>
</linearGradient>
<linearGradient id="paint2_linear_76_671" x1="31.677" y1="13.7991" x2="31.4716" y2="39.2193" gradientUnits="userSpaceOnUse">
<stop stop-color="#47C2D2"/>
<stop offset="1" stop-color="#0A37C4"/>
</linearGradient>
<linearGradient id="paint3_linear_76_671" x1="42.6906" y1="19.965" x2="39.1423" y2="-8.79728" gradientUnits="userSpaceOnUse">
<stop stop-color="#AE1767"/>
<stop offset="1" stop-color="#0A37C4"/>
</linearGradient>
<linearGradient id="paint4_linear_76_671" x1="5.11062" y1="10.93" x2="23.1435" y2="14.9313" gradientUnits="userSpaceOnUse">
<stop stop-color="#47C2D2"/>
<stop offset="1" stop-color="#0A37C4"/>
</linearGradient>
<linearGradient id="paint5_linear_76_671" x1="4.30328" y1="14.3953" x2="22.3186" y2="18.4632" gradientUnits="userSpaceOnUse">
<stop stop-color="#47C2D2"/>
<stop offset="1" stop-color="#0A37C4"/>
</linearGradient>
</defs>
</svg>
