<svg width="1112" height="146" viewBox="0 0 1112 146" fill="none" xmlns="http://www.w3.org/2000/svg">
<g clip-path="url(#clip0_46_852)">
<path d="M0.0354004 60.491C0.142172 59.6976 0.729416 59.1334 1.79713 58.8161C2.2954 58.675 3.07839 58.6574 4.1817 58.8161C5.26721 58.9571 6.38831 59.1863 7.52721 59.4861C8.66611 59.8034 9.71603 60.1737 10.6592 60.632C11.6023 61.0728 12.1718 61.5841 12.3319 62.1483C12.4921 62.7125 12.4743 63.3472 12.2785 64.07C12.065 64.7929 11.9582 65.8684 11.9404 67.3317C11.9226 68.7951 12.0828 70.8226 12.4387 73.3967C12.7946 75.9708 13.631 79.4088 14.93 83.7107C16.3003 88.2241 17.5993 92.1029 18.8628 95.3822C20.1263 98.6615 21.7456 101.412 23.7565 103.651C24.6107 104.709 25.8207 105.59 27.3511 106.331C28.8815 107.071 30.5187 107.636 32.227 108.041C33.9354 108.447 35.6615 108.676 37.3699 108.693C39.0782 108.729 40.573 108.552 41.8543 108.164C44.5592 107.353 46.6768 106.049 48.2072 104.198C49.7376 102.346 50.8409 100.213 51.4815 97.7623C52.1399 95.3117 52.4425 92.6671 52.3891 89.8285C52.3535 87.0076 52.0866 84.1867 51.6239 81.3658C51.1612 78.5449 50.5918 75.865 49.9333 73.2909C49.2749 70.7168 48.6521 68.4953 48.0826 66.5912C47.3174 64.0524 46.6056 61.972 45.9472 60.3147C45.2888 58.675 44.7371 57.3351 44.2744 56.3302C43.8118 55.3076 43.4203 54.5495 43.1177 54.0205C42.7974 53.4916 42.6017 53.0685 42.4949 52.7159C42.2102 51.7991 42.4237 51.0586 43.0999 50.4591C43.7762 49.8773 44.6837 49.4189 45.8226 49.0839C47.1751 48.6784 48.4919 48.6255 49.7732 48.89C51.0544 49.1545 51.873 49.8949 52.2467 51.0938C52.4959 51.9401 52.834 53.4035 53.2255 55.4662C53.617 57.529 54.044 59.9092 54.5067 62.5714C54.9694 65.2337 55.4143 68.0722 55.8592 71.0871C56.304 74.1019 56.6955 76.9934 57.0336 79.779C57.3718 82.5647 57.6209 85.1035 57.7632 87.3955C57.9234 89.6875 57.959 91.4682 57.87 92.72C57.4251 97.3745 56.0193 101.394 53.6703 104.744C51.3214 108.094 48.7944 110.827 46.0896 112.925C45.3955 113.436 44.7015 113.842 44.0075 114.124C43.3135 114.406 42.6195 114.653 41.9077 114.864C40.484 115.287 38.7935 115.569 36.8182 115.693C34.8429 115.816 32.8321 115.746 30.7678 115.481C28.7036 115.217 26.7105 114.705 24.7886 113.983C22.8667 113.26 21.283 112.255 20.0551 111.021C18.7204 109.663 17.2434 107.459 15.6774 104.427C14.1115 101.412 12.4743 97.7976 10.7837 93.6191C9.09319 89.4406 7.38485 84.8214 5.65871 79.779C3.93256 74.719 2.25981 69.5179 0.64044 64.1758C0.142172 62.5538 -0.0357807 61.3549 0.0709909 60.5439L0.0354004 60.491Z" fill="#B01868"/>
<path d="M187.366 140.288H159.054L103.729 44.9584V140.288H77.356V6.08264H107.038L160.994 99.7723V6.08264H187.366V140.288Z" fill="#44BCD3"/>
<path d="M242.994 59.1863C242.728 61.7075 242.585 64.2463 242.585 66.8028C242.585 69.3592 242.692 71.9509 242.905 74.5779L238.119 74.8071C238.083 70.5052 237.069 67.1906 235.058 64.881C233.047 62.5538 230.057 61.1962 226.053 60.7731C222.583 60.4028 219.647 61.0375 217.209 62.6595C214.789 64.2816 213.419 66.5207 213.098 69.3768C212.6 73.9079 217.085 78.0159 226.534 81.7184C228.171 82.3531 229.434 82.8291 230.324 83.1817C235.04 85.0506 238.385 87.3426 240.379 90.0753C242.354 92.8081 243.137 96.1932 242.692 100.231C242.051 106.19 239.151 110.862 234.008 114.247C228.865 117.632 222.601 118.919 215.216 118.143C212.529 117.861 209.824 117.279 207.084 116.398C204.343 115.516 201.567 114.353 198.773 112.889C198.862 112.484 198.933 112.043 199.005 111.602C199.076 111.144 199.165 110.456 199.254 109.504C199.449 107.618 199.556 105.573 199.574 103.369C199.574 101.165 199.485 98.8025 199.307 96.299L204.058 95.6819C204.165 100.812 205.375 104.779 207.653 107.565C209.931 110.351 213.348 111.99 217.885 112.466C222.014 112.907 225.484 112.272 228.313 110.562C231.143 108.852 232.727 106.437 233.065 103.281C233.545 98.873 229.541 94.8885 221.088 91.3447C220.252 90.9745 219.629 90.6924 219.238 90.5337C213.17 87.9949 209.023 85.2092 206.781 82.212C204.539 79.2148 203.667 75.4418 204.147 70.8931C204.717 65.6568 207.279 61.5488 211.871 58.534C216.444 55.5191 222.014 54.3731 228.58 55.0607C230.609 55.2723 232.78 55.713 235.093 56.383C237.425 57.053 240.04 57.9698 242.959 59.151L242.994 59.1863Z" fill="#0F42C6"/>
<path d="M227.619 39.8807L239.293 6.06494H406.64L394.966 39.8807H344.41L317.574 116.909H253.156L279.991 39.8807H227.619Z" stroke="black"/>
<path d="M333.928 96.4576C337.914 93.4251 341.491 90.5866 344.623 87.942C347.773 85.2974 350.691 82.4059 353.414 79.3029C353.236 78.1217 353.503 76.7817 354.179 75.2655C354.855 73.7492 355.71 72.3388 356.724 71.0341C357.738 69.7294 358.788 68.654 359.838 67.8077C360.906 66.9614 361.724 66.5912 362.329 66.6793C362.917 66.8556 363.326 67.2259 363.539 67.8077C363.753 68.3895 363.789 69.0947 363.664 69.8881C363.539 70.6815 363.308 71.5983 362.97 72.6032C362.632 73.6082 362.24 74.5426 361.831 75.3889C361.244 76.3938 360.639 77.2578 360.052 77.9806C359.464 78.7035 358.948 79.1442 358.521 79.3029C358.343 80.2373 358.521 81.1718 359.037 82.1415C359.553 83.1112 360.39 83.5167 361.582 83.3404C363.023 83.3404 364.269 83.1993 365.337 82.8996C366.405 82.5999 367.437 82.1238 368.451 81.4539C369.038 81.1189 369.643 80.6781 370.231 80.1316C370.818 79.585 371.369 79.1266 371.885 78.7387C372.402 78.3509 372.846 78.1746 373.22 78.1746C373.594 78.1746 373.843 78.5977 373.914 79.444C374.003 80.1139 374.056 80.7134 374.11 81.207C374.145 81.7183 374.092 82.4236 373.914 83.358C372.384 85.2974 370.693 87.2015 368.825 89.1056C366.956 90.9921 365.052 92.9315 363.095 94.9061C361.137 96.8807 359.251 98.8906 357.418 100.901C355.585 102.928 354.001 104.991 352.631 107.089C351.955 108.023 351.492 108.87 351.225 109.681C350.976 110.474 350.94 111.073 351.154 111.444C351.368 111.814 351.848 111.99 352.613 111.955C353.378 111.92 354.446 111.55 355.799 110.88C357.578 109.963 359.625 108.693 361.92 107.089C364.216 105.485 366.458 103.863 368.665 102.223C370.871 100.583 372.846 99.067 374.59 97.6741C376.334 96.2813 385.25 92.5789 385.926 92.1557L386.442 97.7094C385.855 98.2207 376.975 101.976 375.231 103.369C373.487 104.762 371.494 106.278 369.234 107.918C366.974 109.557 364.625 111.179 362.169 112.784C359.696 114.388 357.454 115.64 355.425 116.574C353.805 117.244 352.311 117.597 350.905 117.65C349.499 117.685 348.307 117.421 347.346 116.821C346.367 116.239 345.673 115.287 345.246 113.983C344.819 112.678 344.819 111.056 345.246 109.116C345.922 107.018 346.972 104.903 348.36 102.805C349.766 100.707 351.314 98.732 353.005 96.8631C354.695 95.0119 356.421 93.2841 358.165 91.6797C359.909 90.0753 361.493 88.7001 362.952 87.5188C360.746 88.8588 358.877 89.3524 357.347 88.9646C355.816 88.5767 354.838 87.5541 354.411 85.8792C352.702 87.3954 351.136 88.8059 349.695 90.1106C348.253 91.4152 346.741 92.7023 345.175 93.9541C343.609 95.2235 341.954 96.5281 340.21 97.8681C338.466 99.208 336.526 100.689 334.409 102.293L333.893 96.4929L333.928 96.4576Z" fill="#3D2EA9"/>
<path d="M436.518 53.9147V116.786H425.681V110.104C420.449 114.265 414.345 116.786 407.334 116.786C396.621 116.786 387.207 110.721 381.726 101.641C379.306 97.4802 377.776 92.5436 377.402 87.3778V53.9147H389.005V90.5337C391.425 98.9964 398.685 104.92 407.352 104.92C416.018 104.92 423.154 98.9788 425.698 90.5337V53.9147H436.536H436.518Z" fill="#3D2EA9"/>
<path d="M487.519 131.084C476.557 124.914 467.891 116.469 461.538 105.749C455.185 95.0296 452.018 83.1817 452.018 70.1702C452.018 57.1588 455.185 45.3109 461.538 34.5915C467.891 23.872 476.557 15.4269 487.519 9.25613C498.481 3.08538 510.617 0 523.928 0C533.449 0 542.809 1.88649 551.974 5.65946C561.138 9.43243 568.933 14.5453 575.339 21.0158L560.231 35.2614C555.675 30.5188 550.212 26.7811 543.823 24.0836C537.435 21.3861 530.797 20.0285 523.91 20.0285C514.568 20.0285 506.026 22.2323 498.285 26.6576C490.562 31.083 484.441 37.1303 479.956 44.782C475.454 52.4338 473.212 60.8965 473.212 70.1702C473.212 79.444 475.454 87.8891 479.956 95.5585C484.458 103.228 490.562 109.258 498.285 113.683C506.008 118.108 514.55 120.312 523.91 120.312C530.797 120.312 537.435 118.954 543.823 116.257C550.212 113.559 555.675 109.839 560.231 105.079L575.339 119.325C568.933 125.795 561.138 130.908 551.974 134.681C542.809 138.454 533.467 140.34 523.928 140.34C510.617 140.34 498.499 137.255 487.519 131.084Z" fill="#0F42C6"/>
<path d="M549.838 66.6265C548.966 66.503 548.272 66.1328 547.756 65.5333C547.24 64.9163 546.973 64.1934 546.973 63.3295C546.973 62.9064 547.08 62.448 547.293 61.9543C547.507 61.4606 547.827 61.0375 548.272 60.6673C549.073 59.8739 551.226 59.4684 554.75 59.4684C555.248 57.0882 555.497 54.6728 555.497 52.2398C555.497 51.323 555.461 50.5296 555.408 49.8596C555.355 49.1897 555.319 48.6607 555.319 48.3081C555.319 46.9682 555.835 45.9632 556.85 45.2933C557.864 44.6233 559.021 44.2883 560.32 44.2883C561.921 44.2883 563.007 44.6938 563.594 45.4872C564.181 46.2806 564.466 47.744 564.466 49.8773C564.466 53.0508 564.181 56.1714 563.63 59.2215C564.608 59.2215 565.978 59.1687 567.705 59.0452C570.054 58.9218 571.744 58.8689 572.794 58.8689C573.844 58.8689 574.752 59.1334 575.517 59.6447C576.282 60.156 576.673 60.8788 576.673 61.7956C576.673 64.1758 575.588 65.5862 573.435 66.0094C571.157 66.5559 567.616 66.8909 562.811 67.0143C562.633 69.3945 562.526 71.9862 562.526 74.8071C562.526 79.1972 562.811 82.8115 563.363 85.6147C563.736 87.5717 564.359 88.9822 565.249 89.8814C566.139 90.7629 567.491 91.2037 569.271 91.2037C570.321 91.2037 571.388 90.9216 572.509 90.375C573.257 89.9519 573.933 89.7403 574.538 89.7403C575.392 89.7403 576.033 90.0224 576.424 90.569C576.816 91.1155 577.029 91.856 577.029 92.7728C577.029 94.483 576.104 95.9111 574.253 97.0394C572.403 98.1678 570.036 98.732 567.135 98.732C565.356 98.732 563.541 98.3089 561.725 97.4449C559.91 96.5987 558.38 95.5232 557.152 94.2362C556.974 94.0598 556.636 93.3546 556.138 92.1205C555.639 90.9039 555.212 89.5816 554.839 88.1888C554.216 85.315 553.913 81.2952 553.913 76.0941C553.913 73.8374 554.038 70.8049 554.287 67.032L549.856 66.6617L549.838 66.6265Z" stroke="#B01868"/>
<path d="M598.099 102.241C597.939 102.646 597.921 102.946 598.028 103.104C598.152 103.263 598.17 103.598 598.099 104.092C597.014 104.339 596.142 104.339 595.483 104.092C594.825 103.845 594.113 103.316 593.366 102.487C593.116 102.241 592.849 101.994 592.565 101.747C592.28 101.5 592.049 101.253 591.889 101.006C591.479 100.513 591.248 100.037 591.212 99.5959C591.177 99.1375 591.106 98.591 591.034 97.9386C591.034 97.6918 590.999 97.445 590.91 97.1981C590.821 96.9513 590.874 96.7397 591.034 96.5811C591.123 96.3342 591.337 96.1227 591.711 95.964C592.084 95.8053 592.387 95.8053 592.636 95.964C592.885 96.1227 593.152 96.44 593.437 96.8808C593.721 97.3392 593.988 97.7623 594.238 98.1678C594.825 99.067 595.448 99.8075 596.106 100.389C596.764 100.971 597.441 101.588 598.099 102.241ZM663.55 105.202C662.304 105.696 661.557 106.049 661.308 106.243C661.059 106.454 660.774 106.631 660.436 106.789C660.098 106.877 659.778 106.913 659.439 106.913C659.101 106.913 658.728 106.948 658.318 107.036C657.233 107.283 656.147 107.565 655.026 107.9C653.905 108.235 652.766 108.394 651.609 108.394C649.616 108.394 647.695 108.429 645.826 108.517C643.958 108.605 642.285 108.147 640.79 107.159C639.704 106.666 638.405 106.366 636.875 106.243C635.345 106.119 633.957 106.26 632.711 106.666C632.462 106.825 632.159 106.913 631.786 106.913C631.412 106.913 631.056 107.001 630.736 107.159C630.077 107.318 629.454 107.442 628.867 107.53C628.28 107.618 627.532 107.565 626.625 107.406C625.379 107.159 624.454 107.107 623.831 107.23C623.208 107.353 622.568 107.301 621.909 107.054C619.418 107.212 617.14 107.195 615.058 106.983C612.976 106.772 610.947 106.225 608.954 105.326C608.367 105.326 607.798 105.114 607.21 104.709C604.879 103.88 602.975 102.805 601.48 101.447C599.985 100.09 598.526 98.7144 597.12 97.3215C596.711 96.7397 596.284 96.1579 595.875 95.5408C595.465 94.9238 595.092 94.2891 594.754 93.6367C594.593 93.2312 594.415 92.861 594.255 92.526C594.095 92.191 594.095 91.8208 594.255 91.4153C594.095 91.2566 593.988 91.045 593.953 90.7982C593.917 90.5514 593.81 90.3045 593.65 90.0577C593.65 89.229 593.597 88.3299 593.472 87.3426C593.348 86.3552 593.259 85.3856 593.223 84.4511C593.188 83.4991 593.241 82.6175 593.401 81.8065C593.561 80.9779 593.988 80.2903 594.647 79.7085C594.736 79.0561 594.86 78.3685 595.021 77.6809C595.181 76.9757 595.181 76.2705 595.021 75.53C594.932 75.1245 594.736 74.7719 594.398 74.4898C594.06 74.2077 593.864 73.8551 593.775 73.4496C593.686 73.2909 593.668 73.0793 593.721 72.8325C593.757 72.5857 593.775 72.3036 593.775 71.9686C593.775 71.7217 593.757 71.4925 593.721 71.2986C593.686 71.087 593.704 70.8755 593.775 70.6286C593.775 70.2231 593.81 69.8353 593.899 69.465C593.988 69.0948 594.06 68.6187 594.149 68.0546C594.149 67.8959 594.131 67.6843 594.095 67.4375C594.06 67.1907 594.042 66.9438 594.042 66.697C594.131 66.4502 594.22 66.2033 594.344 65.9565C594.469 65.7097 594.522 65.4276 594.522 65.0926C594.611 64.8458 594.629 64.5813 594.576 64.2992C594.54 64.0171 594.558 63.6998 594.629 63.3824C594.718 61.9896 594.86 60.6497 595.056 59.3802C595.27 58.1108 595.412 56.7709 595.483 55.3781C595.323 54.4789 595.252 53.5974 595.305 52.7335C595.341 51.8696 595.376 50.988 595.376 50.0889C595.465 49.7539 595.501 49.4189 595.501 49.0486C595.501 48.6784 595.59 48.4139 595.75 48.2553C595.91 47.8498 596.159 47.5148 596.498 47.2679C596.836 47.0211 597.085 46.6861 597.245 46.2806C597.583 45.3814 597.636 44.5528 597.423 43.8123C597.209 43.0718 596.942 42.3842 596.622 41.7143C596.462 41.4674 596.284 41.203 596.124 40.9209C595.964 40.6388 595.839 40.3214 595.75 40.0041C595.661 39.7573 595.626 39.4223 595.626 39.0168C595.626 38.6113 595.661 38.1529 595.75 37.6592C595.839 37.1655 595.91 36.6895 595.999 36.2487C596.088 35.7903 596.159 35.4906 596.248 35.3319C596.248 35.2438 596.409 35.0675 596.747 34.7854C597.085 34.5033 597.281 34.3094 597.369 34.2388C597.53 34.0802 597.797 34.0096 598.17 34.0625C598.544 34.0978 598.9 34.0802 599.22 34.0096C600.128 33.6747 600.679 33.5336 600.84 33.5865C601 33.6218 601.178 33.6394 601.338 33.6394C602.085 33.6394 602.868 33.7275 603.705 33.8862C605.288 34.0449 606.801 34.1859 608.242 34.3094C609.684 34.4328 611.339 34.4151 613.154 34.2388C613.812 34.8912 614.311 35.2262 614.649 35.2262C615.307 35.6317 616.179 36.0724 617.265 36.5132C618.35 36.9716 619.293 37.1832 620.13 37.1832C621.037 37.1832 621.767 37.0245 622.301 36.6895C622.835 36.3545 623.44 36.0724 624.098 35.8256C625.255 35.4201 626.394 35.2438 627.515 35.3319C628.636 35.4201 629.775 35.4201 630.931 35.3319C631.092 35.5788 631.216 35.8785 631.305 36.2487C631.394 36.619 631.394 36.8834 631.305 37.0421C631.465 37.3771 631.59 37.6945 631.679 38.0294C631.768 38.3644 631.892 38.6818 632.052 39.0168C632.213 40.6564 632.302 42.3666 632.302 44.1297C632.302 45.8927 632.088 47.4795 631.679 48.8723C631.269 52.328 630.825 55.6602 630.38 58.8513C629.917 62.0601 629.703 64.9692 629.703 67.5962C629.454 68.3366 629.17 68.9361 628.832 69.3769C628.493 69.8353 628.209 70.5052 627.96 71.4044C627.71 72.233 627.497 73.0264 627.337 73.8022C627.177 74.5779 626.874 75.3008 626.465 75.9531C626.465 77.0286 626.518 77.9454 626.643 78.7211C626.767 79.4969 627.248 80.0611 628.066 80.3784C628.155 81.0308 628.28 81.736 628.44 82.4765C628.6 83.217 628.689 83.9222 628.689 84.5745C628.689 85.9674 628.778 86.9371 628.938 87.466C629.098 87.9949 629.152 88.5943 629.063 89.2467C629.401 89.4935 629.686 89.7756 629.935 90.1106C630.184 90.4456 630.433 90.7629 630.682 91.0979C630.931 91.4329 631.216 91.7326 631.554 92.0147C631.892 92.2968 632.337 92.4907 632.924 92.5613C633.583 92.5613 634.028 92.5965 634.223 92.6847C634.437 92.7728 634.615 92.8081 634.775 92.8081C635.523 92.9668 636.377 93.0196 637.32 92.9315C638.281 92.8433 639.206 92.8081 640.114 92.8081C640.95 92.8962 641.751 92.9315 642.534 92.9315C643.317 92.9315 644.082 93.0196 644.829 93.1783C645.666 93.0196 646.484 92.9491 647.321 93.002C648.157 93.0373 648.976 93.0902 649.812 93.1254C650.649 93.1607 651.414 93.1607 652.108 93.1254C652.82 93.0902 653.496 92.861 654.154 92.4555C654.652 92.1205 655.115 91.6092 655.524 90.9216C655.934 90.2164 656.236 89.5111 656.396 88.7706C656.895 87.131 657.179 85.6324 657.268 84.2748C657.357 82.9172 657.393 81.7536 657.393 80.7663C657.482 80.114 657.5 79.444 657.446 78.7917C657.411 78.1393 657.464 77.5223 657.624 76.9404C658.034 76.0413 658.496 75.2831 658.995 74.6661C659.493 74.049 659.955 73.379 660.365 72.6385C660.863 71.2457 660.863 69.7295 660.365 68.0722C659.866 66.4325 659.244 65.1102 658.496 64.1229C658.087 62.8006 657.98 61.4783 658.194 60.1207C658.407 58.7632 658.55 57.388 658.621 55.9951C658.621 52.7864 658.745 49.8773 658.995 47.2503C659.244 44.6233 659.208 42.0669 658.87 39.5986C659.03 39.2636 659.208 38.9639 659.368 38.6818C659.528 38.3997 659.742 38.1705 659.991 38.0118C660.578 37.6768 661.272 37.5358 662.109 37.571C662.945 37.6063 663.764 37.6768 664.6 37.7473C665.436 37.906 665.881 38.0471 665.97 38.1705C666.059 38.2939 666.184 38.3997 666.344 38.4702C666.753 38.717 667.145 38.911 667.518 39.0168C667.892 39.1402 668.284 39.2812 668.693 39.4399C669.689 39.1931 670.259 39.0168 670.437 38.8933C670.597 38.7699 670.775 38.717 670.935 38.717C671.522 38.5584 672.163 38.6289 672.857 38.9639C673.569 39.2989 674.032 39.6691 674.281 40.0746C674.37 40.3214 674.37 40.6212 674.281 40.9914C674.192 41.3616 674.156 41.7495 674.156 42.155C674.316 44.2883 674.423 46.6156 674.459 49.1192C674.494 51.6227 674.387 53.95 674.156 56.0833C674.156 57.723 674.014 59.4155 673.729 61.1433C673.444 62.8711 673.213 64.5637 673.053 66.2033C672.964 67.1025 672.946 67.984 672.999 68.8479C673.035 69.7118 673.017 70.5934 672.946 71.4925C672.857 73.1322 672.839 74.7895 672.875 76.4291C672.91 78.0688 672.821 79.7085 672.572 81.3657C672.821 81.8594 672.839 82.2296 672.643 82.4765C672.43 82.7233 672.216 83.0583 671.967 83.4638C671.718 83.8693 671.469 84.4159 671.22 85.0682C670.971 85.7205 670.882 86.3023 670.971 86.796C671.06 87.2015 671.184 87.5365 671.344 87.7833C671.505 88.0302 671.629 88.4004 671.718 88.8941C671.807 89.2996 671.825 89.7403 671.789 90.1811C671.754 90.6395 671.718 91.0979 671.718 91.5916C671.718 91.9971 671.789 92.4378 671.896 92.8786C672.021 93.337 672.038 93.7249 671.949 94.0422C671.789 95.2764 671.433 96.4753 670.9 97.6213C670.366 98.7673 669.636 99.6841 668.729 100.336C668.479 100.83 668.177 101.218 667.803 101.5C667.429 101.782 667.074 102.135 666.753 102.54C666.415 102.875 666.006 103.369 665.508 104.021C664.6 104.515 664.084 104.815 663.959 104.938C663.835 105.061 663.692 105.167 663.532 105.255L663.55 105.202ZM612.033 108.905C612.193 109.152 612.406 109.363 612.656 109.522C612.905 109.681 613.029 109.892 613.029 110.139C613.029 110.545 612.851 110.756 612.478 110.756C612.104 110.756 611.712 110.668 611.303 110.509C610.556 110.756 609.63 110.897 608.509 110.95C607.388 110.985 606.587 110.686 606.089 110.033C605.182 109.698 604.31 109.434 603.473 109.24C602.637 109.028 601.943 108.605 601.356 107.953C600.199 107.953 599.612 107.494 599.612 106.595C599.612 106.348 599.718 106.066 599.932 105.731C600.146 105.396 600.448 105.273 600.857 105.361C601.018 105.361 601.231 105.485 601.48 105.731C601.729 105.978 601.978 106.19 602.228 106.348C602.477 106.507 602.744 106.595 603.028 106.595C603.313 106.595 603.633 106.683 603.954 106.842C604.292 106.93 604.594 107.018 604.879 107.142C605.164 107.265 605.431 107.371 605.68 107.442C606.427 107.777 607.121 107.971 607.797 108.059C608.047 108.147 608.314 108.164 608.598 108.129C608.883 108.094 609.15 108.112 609.399 108.182C609.897 108.27 610.36 108.394 610.769 108.552C611.179 108.711 611.606 108.834 612.015 108.923L612.033 108.905ZM603.082 45.5401C603.989 45.452 604.683 45.1699 605.128 44.6762C605.591 44.1826 605.911 43.5831 606.125 42.8955C606.338 42.1903 606.392 41.4322 606.303 40.6212C606.214 39.7925 606.143 39.0168 606.054 38.2763C605.395 37.8708 604.63 37.5182 603.758 37.2361C602.886 36.954 602.21 37.1303 601.712 37.7826C601.462 38.1881 601.409 38.6465 601.534 39.1402C601.658 39.6338 601.712 40.2156 601.712 40.868C602.37 41.4498 602.744 42.1374 602.833 42.966C602.922 43.7947 602.993 44.6586 603.082 45.5578V45.5401ZM618.386 110.509C618.048 111.655 617.46 112.22 616.588 112.167C615.716 112.131 615.076 111.902 614.666 111.497C614.578 110.597 614.702 110.069 615.04 109.892C615.378 109.734 615.752 109.663 616.161 109.716C616.571 109.751 616.998 109.857 617.407 110.033C617.816 110.192 618.154 110.368 618.404 110.527L618.386 110.509ZM620.628 86.8313C621.375 86.8313 622.016 86.6902 622.55 86.4081C623.084 86.126 623.404 85.5619 623.475 84.7508C623.315 84.504 623.119 84.2748 622.923 84.0809C622.71 83.8693 622.532 83.6049 622.372 83.2875C621.785 83.1288 621.322 83.1641 620.948 83.4109C620.575 83.6577 620.308 83.9927 620.147 84.3982C619.987 84.8037 619.934 85.2621 620.023 85.7558C620.112 86.2495 620.308 86.6197 620.646 86.8665L620.628 86.8313ZM632.195 98.6615C632.444 98.5028 632.657 98.2912 632.818 98.0444C632.978 97.7976 633.156 97.586 633.316 97.4273C632.658 96.775 631.714 96.4576 630.522 96.5105C629.312 96.5458 628.387 96.3342 627.728 95.8406C627.23 95.1882 626.732 94.5006 626.233 93.813C625.735 93.1078 625.361 92.3144 625.112 91.4153C624.205 91.3271 623.617 91.5387 623.368 92.0323C623.119 92.526 622.995 93.1078 622.995 93.7601C622.995 94.4125 623.101 95.1177 623.297 95.8582C623.511 96.5987 623.689 97.1805 623.849 97.586C624.258 98.1678 624.899 98.5557 625.771 98.7496C626.643 98.9612 627.497 99.0494 628.315 99.0494C628.565 99.0494 628.796 99.0141 628.992 98.9259C629.205 98.8378 629.419 98.8025 629.668 98.8025C630.077 98.8025 630.54 98.8202 631.038 98.8554C631.536 98.8907 631.91 98.8378 632.159 98.6791L632.195 98.6615ZM630.825 33.5689C630.415 33.4102 629.988 33.1457 629.579 32.7755C629.17 32.4052 628.992 31.9821 629.081 31.4884C629.917 31.1535 631.109 31.0829 632.693 31.2416C632.942 31.2416 633.191 31.2769 633.44 31.365C633.69 31.4532 633.903 31.5237 634.063 31.6119C634.651 31.2064 635.451 31.0124 636.484 31.0653C637.516 31.1006 638.121 31.4532 638.281 32.1055C638.37 32.2642 638.388 32.5639 638.334 32.9694C638.299 33.3749 638.227 33.7099 638.156 33.9567C638.156 34.4504 638.067 35.0498 637.907 35.7374C637.747 36.4427 637.569 36.9892 637.409 37.3947C637.249 38.2234 636.875 38.8052 636.288 39.1754C635.7 39.5457 635.38 39.722 635.291 39.722C635.042 39.6338 634.829 39.3694 634.668 38.9286C634.508 38.4702 634.384 38.1352 634.295 37.8884C634.135 37.2361 634.081 36.6014 634.17 35.9843C634.259 35.3672 634.17 34.8206 633.921 34.327C633.512 34.1683 633.013 34.0449 632.426 33.9567C631.839 33.8686 631.305 33.7452 630.807 33.5865L630.825 33.5689ZM637.551 43.9357C637.711 44.7644 637.64 45.5401 637.302 46.2806C636.964 47.0211 636.964 47.7263 637.302 48.3787C637.142 48.7137 636.964 48.9957 636.804 49.2426C636.644 49.4894 636.555 49.7715 636.555 50.1065C636.395 50.4415 636.145 50.7412 635.807 51.0233C635.469 51.3054 635.184 51.4464 634.935 51.4464C634.437 50.5473 634.259 49.8068 634.384 49.2249C634.508 48.6431 634.526 48.2024 634.437 47.8674C634.437 47.4619 634.419 47.0035 634.384 46.5098C634.348 46.0162 634.33 45.4872 634.33 44.9054C634.419 44.3236 634.579 43.8123 634.829 43.3715C635.078 42.9131 635.362 42.7016 635.701 42.7016C636.11 42.6134 636.43 42.7545 636.626 43.1247C636.839 43.495 637.142 43.7594 637.551 43.9181V43.9357ZM647.872 91.6445C647.712 91.5563 647.499 91.3976 647.25 91.1508C647 90.904 646.876 90.6924 646.876 90.5337C646.965 90.1987 647.214 89.9343 647.623 89.7403C648.033 89.5288 648.335 89.3877 648.495 89.3172C648.905 89.229 649.278 89.2114 649.616 89.2467C649.954 89.2819 650.275 89.1938 650.613 88.947C651.022 88.612 651.396 88.2417 651.734 87.8362C651.983 87.4307 652.09 86.9547 652.037 86.4258C652.001 85.8968 652.054 85.4561 652.215 85.1387C652.375 84.8037 652.766 84.504 653.389 84.2219C654.012 83.9398 654.439 84.0456 654.688 84.5216C654.848 84.8566 654.919 85.2445 654.866 85.6853C654.83 86.1437 654.635 86.4787 654.314 86.7255C654.475 87.3778 654.457 88.1888 654.261 89.1233C654.047 90.0753 653.745 90.7453 653.336 91.1508C652.926 91.4858 652.499 91.6445 652.09 91.6445C651.681 91.6445 651.182 91.7326 650.595 91.8913C650.186 91.5563 649.723 91.4858 649.225 91.6445C648.727 91.8031 648.264 91.8031 647.855 91.6445H647.872ZM654.083 82.0181C653.834 82.0181 653.62 81.8418 653.46 81.4715C653.3 81.1013 653.229 80.731 653.282 80.3608C653.318 79.9906 653.442 79.6908 653.656 79.444C653.869 79.1972 654.208 79.1972 654.706 79.444C654.706 79.6027 654.741 79.8319 654.83 80.114C654.919 80.3961 654.955 80.7134 654.955 81.0308C654.955 81.3481 654.902 81.6302 654.777 81.8241C654.652 82.0357 654.421 82.0886 654.101 82.0005L654.083 82.0181ZM674.743 99.5254C675.081 100.918 675.046 102.047 674.69 102.91C674.316 103.774 673.889 104.533 673.391 105.185C672.732 106.26 671.985 107.248 671.149 108.147C670.312 109.046 669.191 109.663 667.785 109.998C667.536 110.086 667.305 110.104 667.109 110.051C666.896 110.016 666.682 110.033 666.433 110.121C665.846 110.28 665.205 110.527 664.511 110.862C663.799 111.197 662.998 111.144 662.091 110.739C661.842 110.333 661.806 109.786 661.966 109.134C663.052 108.552 663.71 108.182 663.959 108.023C664.208 107.865 664.493 107.688 664.831 107.53C665.169 107.371 665.454 107.283 665.703 107.283C665.952 107.283 666.166 107.195 666.326 107.036C666.575 106.877 666.753 106.701 666.878 106.542C667.002 106.384 667.18 106.207 667.429 106.049C667.839 105.714 668.301 105.502 668.8 105.379C669.298 105.255 669.761 105.079 670.17 104.832C670.33 104.674 670.597 104.356 670.971 103.915C671.344 103.457 671.611 103.157 671.772 102.999C672.021 102.505 672.252 102.011 672.448 101.518C672.661 101.024 672.875 100.495 673.124 99.9133C673.284 99.7546 673.498 99.6312 673.747 99.543C673.996 99.4549 674.334 99.4549 674.743 99.543V99.5254ZM663.924 46.6509C664.422 46.739 664.796 46.5451 665.045 46.1043C665.294 45.6459 665.579 45.3462 665.917 45.1875C666.006 44.6939 665.935 44.1826 665.739 43.6536C665.525 43.1247 665.312 42.8074 665.063 42.7368C664.725 42.6487 664.298 42.7192 663.764 42.9131C663.23 43.1247 662.909 43.4244 662.838 43.8299C662.678 44.2355 662.714 44.782 662.963 45.4343C663.212 46.0867 663.55 46.5098 663.959 46.6685L663.924 46.6509ZM675.989 93.4957C676.897 94.7298 676.861 95.9287 675.864 97.0747C675.615 97.1629 675.366 97.2863 675.117 97.445C674.868 97.6036 674.583 97.6036 674.245 97.445C674.245 97.11 674.263 96.7045 674.298 96.2108C674.334 95.7172 674.405 95.2411 674.476 94.8004C674.565 94.342 674.708 94.007 674.903 93.7601C675.117 93.5133 675.455 93.4252 675.953 93.5133L675.989 93.4957Z" fill="#44BCD3"/>
<path d="M709.302 111.62C718.502 94.3244 727.56 85.6677 736.475 85.6677C738.788 85.6677 741.12 86.1966 743.433 87.2721L734.66 96.7574C733.325 96.017 731.635 95.6467 729.57 95.6467C725.264 95.6467 720.708 99.1023 715.921 106.031C711.135 112.96 708.323 120.153 707.504 127.629L705.832 142.668L696.578 145.753L696.756 143.902L697.183 139.9L697.681 135.898L700.938 106.56L701.312 103.351C701.596 100.918 701.739 98.9613 701.739 97.4274C701.739 94.9238 701.027 93.6721 699.621 93.6721C696.293 93.6721 693.001 97.1806 689.709 104.215C688.677 103.439 688.179 102.628 688.214 101.817C688.339 99.3139 690.652 95.9993 695.172 91.8561C699.674 87.7305 703.251 85.6677 705.867 85.6677C709.391 85.6677 711.17 87.9773 711.17 92.579C711.17 93.6897 711.063 95.1883 710.868 97.0748L710.441 101.394L709.871 106.578L709.302 111.638V111.62Z" fill="#B01868"/>
<path d="M808.955 77.2226H764.413V100.583H815.183V116.927H745.693V26.0582H812.941V42.1374H764.413V61.4254H808.955V77.2049V77.2226Z" stroke="#3D2EA9"/>
<path d="M888.625 71.7393C889.265 77.9277 888.998 84.6098 887.859 91.7502C887.254 95.4879 885.955 99.5959 883.945 104.039C881.934 108.499 879.496 112.537 876.631 116.186C873.766 119.818 870.705 122.375 867.466 123.82C863.017 125.76 857.75 126.782 851.628 126.871C845.507 126.976 840.72 126.747 837.285 126.201L824.455 124.173C823.53 124.032 822.978 123.732 822.8 123.274C822.622 122.816 822.693 122.357 823.013 121.899C823.138 121.67 823.227 121.335 823.298 120.929C823.352 120.594 823.405 120.153 823.441 119.607C823.476 119.06 823.583 118.284 823.743 117.297C824.188 114.547 824.579 111.849 824.918 109.169L828.299 86.5668L832.463 61.5312C832.819 59.3626 833.103 57.2645 833.353 55.2194C833.602 53.1742 833.797 51.3935 833.958 49.8773L834.972 41.9787C835.363 40.0746 835.702 38.7699 835.986 38.047C836.271 37.3242 836.662 37.0068 837.179 37.0774L837.552 37.1302C837.89 37.1831 838.246 37.3066 838.656 37.5005C839.047 37.6944 839.421 37.8178 839.759 37.8707C840.435 37.9765 841.254 38.0647 842.232 38.1352C843.211 38.2057 844.208 38.3115 845.204 38.4702L850.098 39.3693C854.796 40.1098 858.995 40.9914 862.715 41.9963C863.053 42.0492 864.156 42.3137 866.007 42.7721C867.875 43.2305 870.153 44.4999 872.876 46.545C875.599 48.5902 878.41 51.3406 881.293 54.7786C885.546 59.8739 887.984 65.5333 888.625 71.7217V71.7393ZM860.561 121.828C865.544 120.224 869.993 116.962 873.872 112.043C877.77 107.124 880.457 100.037 881.934 90.8158C883.411 81.5949 883.09 74.1019 881.008 68.1074C878.926 62.113 875.83 57.3879 871.737 53.9323C867.573 50.4591 862.555 48.22 856.682 47.215L854.351 58.481C853.443 62.5185 852.411 68.1074 851.272 75.2479C851.166 75.9178 850.703 79.6379 849.867 86.4081C849.671 89.2819 849.368 91.9618 848.959 94.4477L846.236 110.509C845.756 112.995 845.062 116.98 844.19 122.463C849.92 123.715 855.383 123.503 860.544 121.846L860.561 121.828Z" fill="black"/>
</g>
<g clip-path="url(#clip1_46_852)">
<path d="M943.37 107.839C939.145 109.816 935.016 110.628 930.982 110.276C926.949 109.924 923.476 108.976 920.563 107.419C917.651 105.862 915.217 103.845 913.276 101.381C909.297 96.3041 907.588 90.0087 908.203 82.5083C908.818 75.0079 911.895 68.4959 917.391 63.7845C922.929 59.0053 929.683 56.9475 937.655 57.6244C940.102 57.8275 942.467 58.369 944.765 59.2219L946.528 37.4384L958.205 38.4402L953.98 90.7533C953.625 95.0992 953.597 97.9423 953.884 99.3233C954.172 100.691 954.541 101.706 954.978 102.369C955.416 103.033 956.004 103.669 956.715 104.292L947.103 111.657C945.53 110.601 944.286 109.328 943.384 107.839H943.37ZM934.141 99.215C936.807 99.4451 939.295 99.1337 941.606 98.2808L943.794 71.163C941.647 70.0257 939.268 69.3488 936.67 69.1322C934.072 68.9156 931.803 69.078 929.888 69.6331C927.974 70.1882 926.292 71.0547 924.857 72.2055C921.849 74.6424 920.167 78 919.825 82.2782C919.442 86.949 920.413 90.7669 922.737 93.7589C925.226 96.9675 929.027 98.7817 934.141 99.215Z" fill="#44BCD3"/>
<path d="M1033.75 123.652C1033.75 124.586 1033.49 125.06 1032.97 125.06C1030.71 125.06 1028.17 124.965 1025.33 124.762C1022.88 124.559 1020.79 124.464 1019.05 124.464C1017.05 124.464 1014.59 124.559 1011.65 124.762C1008.55 124.965 1005.91 125.06 1003.72 125.06C1003.2 125.06 1002.94 124.6 1002.94 123.679C1002.94 122.759 1003.14 122.298 1003.53 122.298C1006.43 122.163 1008.52 121.77 1009.79 121.107C1011.07 120.443 1011.71 119.428 1011.71 118.047C1011.71 117.167 1011.38 115.773 1010.72 113.85L1005.15 97.0081H985.046L979.453 112.591C978.742 114.676 978.373 116.301 978.373 117.438C978.373 120.403 981.012 122.027 986.304 122.285C986.7 122.285 986.892 122.745 986.892 123.666C986.892 124.586 986.632 125.047 986.112 125.047C984.157 125.047 981.983 124.952 979.604 124.749C977.348 124.546 975.351 124.451 973.588 124.451C972.179 124.451 970.429 124.546 968.31 124.749C966.095 124.952 964.208 125.047 962.636 125.047C962.143 125.047 961.897 124.627 961.897 123.787C961.897 122.853 962.266 122.352 963.018 122.285C965.726 122.014 967.872 121.242 969.458 119.97C971.044 118.697 972.685 116.098 974.381 112.171L997.283 54.3886C997.474 53.8471 997.939 53.5898 998.65 53.5898C999.43 53.5898 999.922 53.8471 1000.11 54.348L1020.34 112.185C1021.48 115.434 1023.02 117.83 1024.96 119.374C1026.9 120.917 1029.5 121.892 1032.76 122.285C1033.42 122.352 1033.75 122.799 1033.75 123.639V123.652ZM1004.06 93.7859L995.465 68.1574L986.208 93.7859H1004.06Z" fill="#0F42C6"/>
<path d="M1055.39 96.0333C1059.37 94.9909 1061.85 93.2173 1062.8 90.7127L1063.17 90.6179L1066.03 101.625C1064.9 103.574 1062.34 105.334 1058.36 106.918C1057.29 107.365 1055.93 107.812 1054.27 108.232C1052.62 108.651 1050.74 108.814 1048.67 108.678C1046.57 108.543 1044.67 107.947 1042.96 106.864C1039.42 104.644 1036.88 100.393 1035.34 94.1108L1030 72.5033L1023 74.331C1022.74 73.4239 1022.5 72.4897 1022.26 71.5285L1020.46 64.2041C1020.32 63.6626 1020.27 63.3918 1020.31 63.3782L1027.31 61.5505L1023.96 47.9849L1035.31 45.0334L1038.66 58.5991L1051.4 55.2822L1054.11 66.2349L1041.36 69.5518L1046.16 88.9797C1047.39 93.9619 1049.43 96.453 1052.3 96.453C1053.23 96.4801 1054.27 96.3447 1055.41 96.0469L1055.39 96.0333Z" fill="#B01868"/>
<path d="M1081.47 76.5108C1084.01 73.1803 1088.37 71.5286 1094.55 71.5286C1098.57 71.5286 1102.16 72.3544 1105.27 73.9926C1108.39 75.6308 1109.96 78.7311 1109.96 83.2801V100.596C1109.96 101.801 1109.99 103.249 1110.03 104.955C1110.1 106.255 1110.29 107.122 1110.61 107.582C1110.92 108.042 1111.4 108.421 1112.03 108.719V110.168H1101.58C1101.29 109.41 1101.09 108.692 1100.98 108.015C1100.87 107.352 1100.77 106.58 1100.71 105.727C1099.38 107.203 1097.85 108.462 1096.13 109.504C1094.06 110.723 1091.72 111.346 1089.11 111.346C1085.79 111.346 1083.04 110.371 1080.87 108.421C1078.69 106.472 1077.61 103.71 1077.61 100.122C1077.61 95.4783 1079.35 92.1208 1082.84 90.0494C1084.75 88.9121 1087.55 88.1133 1091.26 87.6259L1094.53 87.2063C1096.3 86.9761 1097.57 86.6918 1098.34 86.3398C1099.71 85.7441 1100.39 84.8099 1100.39 83.5373C1100.39 81.9939 1099.87 80.9243 1098.82 80.3286C1097.78 79.7465 1096.23 79.4486 1094.21 79.4486C1091.94 79.4486 1090.33 80.0308 1089.38 81.1816C1088.71 82.0345 1088.26 83.1853 1088.03 84.6475H1078.76C1078.97 81.344 1079.87 78.6363 1081.45 76.5108H1081.47ZM1088.61 103.033C1089.51 103.791 1090.6 104.17 1091.91 104.17C1093.98 104.17 1095.88 103.547 1097.63 102.302C1099.37 101.056 1100.28 98.7817 1100.34 95.4783V91.8094C1099.74 92.202 1099.12 92.5134 1098.5 92.7571C1097.89 93.0008 1097.04 93.2309 1095.96 93.434L1093.8 93.8537C1091.78 94.2192 1090.33 94.6796 1089.45 95.2076C1087.96 96.1011 1087.22 97.5091 1087.22 99.4045C1087.22 101.097 1087.69 102.302 1088.61 103.046V103.033Z" fill="#3D2EA9"/>
</g>
<defs>
<clipPath id="clip0_46_852"><rect width="888.963" height="145.771" fill="white"/></clipPath>
<clipPath id="clip1_46_852"><rect width="203.92" height="87.6218" fill="white" transform="translate(908.08 37.4384)"/></clipPath>
</defs>
</svg>
